<?xml version="1.0" standalone="no"?><!DOCTYPE svg PUBLIC "-//W3C//DTD SVG 1.1//EN" "http://www.w3.org/Graphics/SVG/1.1/DTD/svg11.dtd"><svg t="1699882678387" class="icon" viewBox="0 0 1024 1024" version="1.1" xmlns="http://www.w3.org/2000/svg" p-id="1370" xmlns:xlink="http://www.w3.org/1999/xlink" width="300" height="300"><path d="M913.066667 247.466667c-29.866667-38.4-81.066667-64-145.066667-68.266667V85.333333H256v93.866667c-64 4.266667-115.2 29.866667-145.066667 68.266667-21.333333 29.866667-29.866667 68.266667-21.333333 102.4 17.066667 72.533333 98.133333 128 196.266667 149.333333 34.133333 72.533333 102.4 123.733333 183.466666 136.533333V682.666667H366.933333L256 793.6V938.666667h512v-145.066667L657.066667 682.666667H554.666667v-46.933334c81.066667-12.8 149.333333-64 183.466666-136.533333 98.133333-17.066667 174.933333-76.8 196.266667-149.333333 8.533333-34.133333 0-72.533333-21.333333-102.4zM170.666667 332.8c0-12.8 0-25.6 8.533333-34.133333 12.8-12.8 38.4-29.866667 76.8-34.133334v140.8c-42.666667-17.066667-76.8-46.933333-85.333333-72.533333z m682.666666 0c-8.533333 29.866667-42.666667 55.466667-85.333333 72.533333V264.533333c38.4 4.266667 64 21.333333 76.8 34.133334 8.533333 8.533333 8.533333 21.333333 8.533333 34.133333z" p-id="1371"></path></svg>