<?xml version="1.0" standalone="no"?><!DOCTYPE svg PUBLIC "-//W3C//DTD SVG 1.1//EN" "http://www.w3.org/Graphics/SVG/1.1/DTD/svg11.dtd"><svg t="1698862305707" class="icon" viewBox="0 0 1024 1024" version="1.1" xmlns="http://www.w3.org/2000/svg" p-id="1186" xmlns:xlink="http://www.w3.org/1999/xlink" width="200" height="200"><path d="M137 137H212V212H137zM287 137H812V212H287zM137 287H212V362H137zM287 287H812V362H287zM137 437H212V512H137zM287 437H512V512H287zM774.6 512c0-62-50.4-112.6-112.6-112.6S549.6 450 549.6 512s50.4 112.6 112.6 112.6 112.4-50.6 112.4-112.6zM662 624.6c-124 0-225 101-225 225v37.6h450v-37.6c0-124.2-101-225-225-225z" p-id="1187"></path></svg>